<svg height="512" viewBox="0 0 64 64" width="512" xmlns="http://www.w3.org/2000/svg"><g id="book-laptop-globe-education-online"><g fill="#78b9eb"><path d="m5 56a2.006 2.006 0 0 0 -2 2v-32a2.006 2.006 0 0 1 2-2h2v32z"/><path d="m23 56v4h-18a2.015 2.015 0 0 1 -2-2 2.006 2.006 0 0 1 2-2z"/><path d="m53.56 28.55a14.957 14.957 0 0 1 -11.56 5.45c2.9 0 5.44-2.89 6.84-7.23a17.811 17.811 0 0 1 4.72 1.78z"/><path d="m50 19h7a14.948 14.948 0 0 1 -3.43 9.55h-.01a17.811 17.811 0 0 0 -4.72-1.78 25.526 25.526 0 0 0 1.16-7.77z"/><path d="m57 19h-7a25.526 25.526 0 0 0 -1.16-7.77 17.811 17.811 0 0 0 4.72-1.78h.01a14.948 14.948 0 0 1 3.43 9.55z"/><path d="m34.46 24h-6.6a14.839 14.839 0 0 1 -.86-5h7a26.705 26.705 0 0 0 .46 5z"/><path d="m35.16 11.23a25.526 25.526 0 0 0 -1.16 7.77h-7a14.948 14.948 0 0 1 3.43-9.55h.01a17.811 17.811 0 0 0 4.72 1.78z"/><path d="m42 34h-7v-1.73a14.985 14.985 0 0 0 7 1.73z"/><path d="m42 12v7h-8a25.526 25.526 0 0 1 1.16-7.77c.26.06.53.12.8.18a30.182 30.182 0 0 0 6.04.59z"/><path d="m35.16 26.77c1.4 4.34 3.94 7.23 6.84 7.23a14.985 14.985 0 0 1 -7-1.73v-6.02c.05.18.1.35.16.52z"/><path d="m42 26v8c-2.9 0-5.44-2.89-6.84-7.23.26-.06.53-.12.8-.18a30.182 30.182 0 0 1 6.04-.59z"/><path d="m42 19v7a30.182 30.182 0 0 0 -6.04.59c-.27.06-.54.12-.8.18-.06-.17-.11-.34-.16-.52v-2.25h-.54a26.705 26.705 0 0 1 -.46-5z"/><path d="m35 34h26v26h-38v-26zm11.1 3h-.1a4 4 0 0 0 -4 4 4 4 0 0 0 -4-4h-12v20h32v-20z"/><path d="m48.04 26.59c.27.06.54.12.8.18-1.4 4.34-3.94 7.23-6.84 7.23v-8a30.182 30.182 0 0 1 6.04.59z"/><path d="m49 19h1a25.526 25.526 0 0 1 -1.16 7.77c-.26-.06-.53-.12-.8-.18a30.182 30.182 0 0 0 -6.04-.59v-7z"/><path d="m50 19h-8v-7a30.182 30.182 0 0 0 6.04-.59c.27-.06.54-.12.8-.18a25.526 25.526 0 0 1 1.16 7.77z"/><path d="m42 4c-2.9 0-5.44 2.89-6.84 7.23a17.811 17.811 0 0 1 -4.72-1.78 14.957 14.957 0 0 1 11.56-5.45z"/><path d="m48.84 11.23c-.26.06-.53.12-.8.18a30.182 30.182 0 0 1 -6.04.59v-8c2.9 0 5.44 2.89 6.84 7.23z"/><path d="m42 4a14.957 14.957 0 0 1 11.56 5.45 17.811 17.811 0 0 1 -4.72 1.78c-1.4-4.34-3.94-7.23-6.84-7.23z"/><path d="m42 4v8a30.182 30.182 0 0 1 -6.04-.59c-.27-.06-.54-.12-.8-.18 1.4-4.34 3.94-7.23 6.84-7.23z"/></g><path d="m12 29h18v2h-18z" fill="#006df0"/><path d="m61 33h-11.27a16 16 0 1 0 -23.73-14 15.781 15.781 0 0 0 .51 4h-21.51a3.009 3.009 0 0 0 -3 3v32a3.009 3.009 0 0 0 3 3h56a1 1 0 0 0 1-1v-26a1 1 0 0 0 -1-1zm-13.64-1.07a15.32 15.32 0 0 0 2.12-3.95 18.439 18.439 0 0 1 2.45.87 14.013 14.013 0 0 1 -4.57 3.08zm5.91-4.66a19.027 19.027 0 0 0 -3.2-1.2 26.454 26.454 0 0 0 .89-6.07h4.99a13.862 13.862 0 0 1 -2.68 7.27zm2.68-9.27h-4.99a26.286 26.286 0 0 0 -.89-6.06 19.454 19.454 0 0 0 3.19-1.22 13.853 13.853 0 0 1 2.69 7.28zm-4.01-8.85a18.084 18.084 0 0 1 -2.46.88 15.227 15.227 0 0 0 -2.12-3.96 14.162 14.162 0 0 1 4.58 3.08zm-8.94-3.99c1.75.54 3.39 2.46 4.51 5.33a29.8 29.8 0 0 1 -4.51.48zm0 7.82a31.336 31.336 0 0 0 5.13-.57 24.467 24.467 0 0 1 .83 5.59h-5.96zm0 7.02h5.96a24.467 24.467 0 0 1 -.83 5.59 30.4 30.4 0 0 0 -5.13-.56zm0 7.03a29.66 29.66 0 0 1 4.51.48c-1.12 2.87-2.76 4.79-4.51 5.33zm-2-21.87v5.81a29.8 29.8 0 0 1 -4.51-.48c1.12-2.87 2.76-4.79 4.51-5.33zm-4.51 22.35a29.8 29.8 0 0 1 4.51-.48v5.81c-1.75-.54-3.38-2.45-4.51-5.33zm.14 4.4c-.21-.09-.42-.18-.63-.28v-.62a10.236 10.236 0 0 0 .63.9zm-.63-6.34v-1.57a1 1 0 0 0 -.66-.93 23.655 23.655 0 0 1 -.29-3.07h5.95v5.03a31.235 31.235 0 0 0 -5 .54zm-.96-7.57a24.467 24.467 0 0 1 .83-5.59 31.459 31.459 0 0 0 5.13.57v5.02zm1.6-11.93a15.227 15.227 0 0 0 -2.12 3.96 18.084 18.084 0 0 1 -2.46-.88 14.162 14.162 0 0 1 4.58-3.08zm-5.9 4.65a19.454 19.454 0 0 0 3.19 1.22 26.286 26.286 0 0 0 -.89 6.06h-4.99a13.853 13.853 0 0 1 2.69-7.28zm2.28 9.28a29.34 29.34 0 0 0 .26 3h-4.68a13.24 13.24 0 0 1 -.56-3zm-29.02 6a1 1 0 0 1 1-1h1v30h-1a3 3 0 0 0 -1 .18zm18 33h-17a1 1 0 0 1 0-2h17zm0-25h-10v2h10v19h-14v-30h26v8h-11a1 1 0 0 0 -1 1zm38 25h-36v-24h36z" fill="#006df0"/><path d="m58 36h-12a4.994 4.994 0 0 0 -4 2.03 4.994 4.994 0 0 0 -4-2.03h-12a1 1 0 0 0 -1 1v20a1 1 0 0 0 1 1h32a1 1 0 0 0 1-1v-20a1 1 0 0 0 -1-1zm-17 20h-14v-18h11a3.009 3.009 0 0 1 3 3zm16 0h-14v-15a3.009 3.009 0 0 1 3-3h11z" fill="#006df0"/><path d="m45 40h10v2h-10z" fill="#006df0"/><path d="m45 44h10v2h-10z" fill="#006df0"/><path d="m45 48h10v2h-10z" fill="#006df0"/><path d="m45 52h10v2h-10z" fill="#006df0"/><path d="m29 40h10v2h-10z" fill="#006df0"/><path d="m29 44h10v2h-10z" fill="#006df0"/><path d="m29 48h10v2h-10z" fill="#006df0"/><path d="m29 52h10v2h-10z" fill="#006df0"/></g></svg>