<?xml version="1.0"?>
<svg xmlns="http://www.w3.org/2000/svg" xmlns:xlink="http://www.w3.org/1999/xlink" viewBox="0 0 512 512" width="512" height="512"><defs><linearGradient id="linear-gradient" x1="54.343" y1="401.657" x2="405.657" y2="50.343" gradientUnits="userSpaceOnUse"><stop offset="0" stop-color="#41dfd0"/><stop offset="1" stop-color="#ee83ef"/></linearGradient></defs><g id="gradient"><path d="M128,112a8,8,0,0,1,8-8H312a8,8,0,0,1,0,16H136A8,8,0,0,1,128,112Zm8,56H312a8,8,0,0,0,0-16H136a8,8,0,0,0,0,16Zm0,48H312a8,8,0,0,0,0-16H136a8,8,0,0,0,0,16Zm0,48H312a8,8,0,0,0,0-16H136a8,8,0,0,0,0,16Zm0,48h64a8,8,0,0,0,0-16H136a8,8,0,0,0,0,16Zm324.7-74.145L400,341.438V424a8,8,0,0,1-8,8H346.926L328.3,463.779c.169,1.39-.9,2.426-3.076,4.119L291.2,494.319a8,8,0,0,1-12.817-7.511l6.4-42.44,0-.03.02-.131c.007-.047.02-.086.028-.132a7.938,7.938,0,0,1,.981-2.721L291.292,432H88a8,8,0,0,1-8-8V400H72a8,8,0,0,1-8-8V342.987a32,32,0,0,1,0-61.974V270.987a32,32,0,0,1,0-61.974V190.987a32,32,0,0,1,0-61.974V110.987a32,32,0,0,1,0-61.974V24a8,8,0,0,1,8-8H304a7.976,7.976,0,0,1,2.316.344c.96-.824,25,23.656,25,23.656H392a8,8,0,0,1,8,8V246.5l19.291-32.918A24,24,0,0,1,460.7,237.855ZM433.1,221.676l-4.046,6.9,13.8,8.09,4.045-6.9a8,8,0,1,0-13.8-8.09Zm-10.466,49.5-13.8-8.09L303.658,442.542l13.8,8.09ZM312,72h28.686L312,43.314ZM430.72,257.374l4.045-6.9-13.805-8.09-4.044,6.9ZM347.314,56l18.343,18.343.007.008A7.978,7.978,0,0,1,368,80V301.108l16.152-27.562A8.041,8.041,0,0,1,384,272V56ZM80,93.85a15.948,15.948,0,0,0,7.5-9.844,8,8,0,0,1,15.5,3.988A31.974,31.974,0,0,1,80,110.988V173.85a15.948,15.948,0,0,0,7.5-9.844,8,8,0,0,1,15.5,3.988A31.974,31.974,0,0,1,80,190.988V253.85a15.948,15.948,0,0,0,7.5-9.844,8,8,0,0,1,15.5,3.988A31.974,31.974,0,0,1,80,270.988V325.85a15.948,15.948,0,0,0,7.5-9.844,8,8,0,0,1,15.5,3.988A31.974,31.974,0,0,1,80,342.988V384H319.422L352,328.41V88H304a8,8,0,0,1-8-8V32H80Zm-16-.015V66.165a15.963,15.963,0,0,0,0,27.67Zm0,80v-27.67a15.963,15.963,0,0,0,0,27.67Zm0,80v-27.67a15.963,15.963,0,0,0,0,27.67Zm0,72v-27.67a15.963,15.963,0,0,0,0,27.67ZM300.668,416l9.377-16H96v16Zm-3.486,53.415,8.9-6.908-7.219-4.231ZM384,368.739,356.3,416H384Z" style="fill:url(#linear-gradient)"/></g></svg>
