<svg id="Capa_1" enable-background="new 0 0 512.004 512.004" height="512" viewBox="0 0 512.004 512.004" width="512" xmlns="http://www.w3.org/2000/svg"><g><g><path d="m353.405 170.436c-47.475 0-81.96-29.486-81.96-76.96 0-19.051 6.208-36.646 16.697-50.896h-150.324l-65.181 65.181v382.062c0 8.117 6.58 14.697 14.697 14.697h276.22c8.117 0 14.697-6.58 14.697-14.697v-323.048c-7.868 2.372-16.205 3.661-24.846 3.661z" fill="#dfebfa"/><path d="m105.228 75.17-32.59 32.59v382.062c0 8.117 6.58 14.697 14.697 14.697h17.894v-429.349z" fill="#b1dbfc"/><path d="m72.637 107.761h50.484c8.117 0 14.697-6.58 14.697-14.697v-50.484z" fill="#dfebfa"/><path d="m72.637 107.761h50.484c8.117 0 14.697-6.58 14.697-14.697v-50.484z" fill="#b1dbfc"/><path d="m72.637 107.761h32.591l32.59-32.591v-32.59z" fill="#8bcaff"/><circle cx="353.405" cy="93.476" fill="#ff656f" r="85.96"/><path d="m307.919 93.476c0-40.501 28.018-74.439 65.723-83.542-6.492-1.567-13.264-2.419-20.238-2.419-47.475 0-85.96 38.486-85.96 85.96s38.486 85.96 85.96 85.96c6.974 0 13.745-.852 20.238-2.419-37.705-9.101-65.723-43.039-65.723-83.54z" fill="#ff4756"/><g><path d="m129.937 223.704-15.303-15.303c-5.495-5.495-5.495-14.403 0-19.897 5.494-5.495 14.403-5.495 19.897 0l5.354 5.354 13.063-13.063c5.494-5.495 14.403-5.495 19.897 0 5.495 5.495 5.495 14.403 0 19.897l-23.012 23.012c-5.492 5.495-14.402 5.495-19.896 0z" fill="#43cb8e"/></g><g><path d="m129.937 298.059-15.303-15.303c-5.495-5.495-5.495-14.403 0-19.897 5.494-5.495 14.403-5.495 19.897 0l5.354 5.354 13.063-13.063c5.494-5.495 14.403-5.495 19.897 0 5.495 5.495 5.495 14.403 0 19.897l-23.012 23.012c-5.492 5.494-14.402 5.495-19.896 0z" fill="#43cb8e"/></g><g><path d="m129.937 372.414-15.303-15.303c-5.495-5.495-5.495-14.403 0-19.897 5.494-5.495 14.403-5.495 19.897 0l5.354 5.354 13.063-13.063c5.494-5.495 14.403-5.495 19.897 0 5.495 5.495 5.495 14.403 0 19.897l-23.012 23.012c-5.492 5.494-14.402 5.495-19.896 0z" fill="#43cb8e"/></g><path d="m331.028 187.449h-113.212c-5.162 0-9.347 4.185-9.347 9.347v10.907c0 5.162 4.185 9.347 9.347 9.347h113.212c5.162 0 9.347-4.185 9.347-9.347v-10.907c0-5.162-4.185-9.347-9.347-9.347z" fill="#8479c2"/><path d="m331.028 261.804h-113.212c-5.162 0-9.347 4.185-9.347 9.347v10.906c0 5.162 4.185 9.347 9.347 9.347h113.212c5.162 0 9.347-4.185 9.347-9.347v-10.906c0-5.162-4.185-9.347-9.347-9.347z" fill="#8479c2"/><path d="m331.028 336.159h-113.212c-5.162 0-9.347 4.185-9.347 9.347v10.907c0 5.162 4.185 9.347 9.347 9.347h113.212c5.162 0 9.347-4.185 9.347-9.347v-10.907c0-5.163-4.185-9.347-9.347-9.347z" fill="#8479c2"/><g><path d="m129.937 446.768-15.303-15.303c-5.495-5.495-5.495-14.403 0-19.897 5.494-5.495 14.403-5.495 19.897 0l5.354 5.354 13.063-13.063c5.494-5.495 14.403-5.495 19.897 0 5.495 5.495 5.495 14.403 0 19.897l-23.012 23.012c-5.492 5.495-14.402 5.495-19.896 0z" fill="#43cb8e"/></g><path d="m331.028 410.513h-113.212c-5.162 0-9.347 4.185-9.347 9.347v10.907c0 5.162 4.185 9.347 9.347 9.347h113.212c5.162 0 9.347-4.185 9.347-9.347v-10.907c0-5.162-4.185-9.347-9.347-9.347z" fill="#8479c2"/><g fill="#6e60b8"><path d="m260.324 207.703v-10.907c0-5.162 4.185-9.347 9.347-9.347h-51.855c-5.162 0-9.347 4.185-9.347 9.347v10.907c0 5.162 4.185 9.347 9.347 9.347h51.855c-5.162-.001-9.347-4.185-9.347-9.347z"/><path d="m260.324 282.057v-10.906c0-5.162 4.185-9.347 9.347-9.347h-51.855c-5.162 0-9.347 4.185-9.347 9.347v10.906c0 5.162 4.185 9.347 9.347 9.347h51.855c-5.162 0-9.347-4.185-9.347-9.347z"/><path d="m260.324 356.412v-10.907c0-5.162 4.185-9.347 9.347-9.347h-51.855c-5.162 0-9.347 4.185-9.347 9.347v10.907c0 5.162 4.185 9.347 9.347 9.347h51.855c-5.162 0-9.347-4.185-9.347-9.347z"/><path d="m260.324 430.767v-10.907c0-5.162 4.185-9.347 9.347-9.347h-51.855c-5.162 0-9.347 4.185-9.347 9.347v10.907c0 5.162 4.185 9.347 9.347 9.347h51.855c-5.162 0-9.347-4.185-9.347-9.347z"/></g></g><g><path d="m386.927 142.541c3.689-1.882 5.155-6.399 3.272-10.089l-36.451-71.453c-1.302-2.547-4.023-4.217-7.017-4.079-2.714.121-5.152 1.738-6.344 4.079l-36.45 71.453c-1.883 3.69-.417 8.207 3.272 10.089 3.69 1.881 8.207.417 10.089-3.273l11.253-22.06h37.033l11.253 22.06c1.884 3.693 6.404 5.154 10.09 3.273zm-50.724-40.332 10.865-21.298 10.865 21.298z"/><path d="m367.466 60.924h6.863v6.863c0 4.142 3.357 7.5 7.5 7.5s7.5-3.358 7.5-7.5v-6.863h6.862c4.143 0 7.5-3.358 7.5-7.5s-3.357-7.5-7.5-7.5h-6.862v-6.863c0-4.142-3.357-7.5-7.5-7.5s-7.5 3.358-7.5 7.5v6.863h-6.863c-4.143 0-7.5 3.358-7.5 7.5s3.358 7.5 7.5 7.5z"/><path d="m178.151 175.477c-8.429-8.43-22.073-8.433-30.504-.001l-7.761 7.76-.05-.05c-8.43-8.43-22.073-8.432-30.504 0-8.429 8.427-8.434 22.073-.001 30.504l15.303 15.303c8.43 8.43 22.074 8.431 30.505 0l23.012-23.012c8.409-8.411 8.409-22.095 0-30.504zm-10.608 19.897-23.012 23.012c-2.566 2.568-6.724 2.568-9.29 0l-15.304-15.303c-2.567-2.568-2.568-6.721.001-9.291 2.562-2.563 6.716-2.573 9.29 0l5.354 5.354c2.929 2.929 7.678 2.929 10.606 0l13.064-13.063c2.565-2.566 6.724-2.568 9.29 0 2.563 2.561 2.563 6.729.001 9.291z"/><path d="m178.151 249.831c-8.429-8.43-22.073-8.433-30.504 0l-7.761 7.76-.05-.05c-8.429-8.429-22.074-8.432-30.504 0-8.429 8.427-8.434 22.073-.001 30.504l15.303 15.303c8.43 8.43 22.073 8.43 30.505 0l23.012-23.012c8.409-8.412 8.409-22.095 0-30.505zm-10.608 19.897-23.012 23.012c-2.566 2.567-6.724 2.568-9.29 0l-15.304-15.303c-2.567-2.568-2.568-6.721.001-9.291 2.561-2.562 6.716-2.573 9.29 0l5.354 5.354c2.929 2.929 7.678 2.929 10.606 0l13.064-13.063c2.565-2.566 6.724-2.568 9.29 0 2.563 2.562 2.563 6.73.001 9.291z"/><path d="m178.151 324.186c-8.429-8.43-22.073-8.433-30.504-.001l-7.761 7.76-.05-.05c-8.43-8.43-22.073-8.432-30.504 0-8.429 8.427-8.434 22.073-.001 30.504l15.303 15.303c8.43 8.43 22.074 8.431 30.505 0l23.012-23.012c8.409-8.411 8.409-22.094 0-30.504zm-10.608 19.897-23.012 23.012c-2.566 2.568-6.724 2.568-9.29 0l-15.304-15.303c-2.567-2.568-2.568-6.721.001-9.291 2.562-2.563 6.716-2.573 9.29 0l5.354 5.354c2.929 2.929 7.678 2.929 10.606 0l13.064-13.063c2.565-2.566 6.724-2.568 9.29 0 2.563 2.562 2.563 6.729.001 9.291z"/><path d="m347.875 271.135c0-9.289-7.558-16.847-16.847-16.847h-113.212c-9.289 0-16.847 7.558-16.847 16.847v10.907c0 9.289 7.558 16.847 16.847 16.847h113.213c9.289 0 16.847-7.558 16.847-16.847v-10.907zm-15 10.907c0 1.018-.828 1.847-1.847 1.847h-113.212c-1.019 0-1.847-.829-1.847-1.847v-10.907c0-1.018.828-1.847 1.847-1.847h113.213c1.019 0 1.847.829 1.847 1.847v10.907z"/><path d="m347.875 345.49c0-9.289-7.558-16.847-16.847-16.847h-113.212c-9.289 0-16.847 7.558-16.847 16.847v10.907c0 9.289 7.558 16.847 16.847 16.847h113.213c9.289 0 16.847-7.558 16.847-16.847v-10.907zm-15 10.906c0 1.018-.828 1.847-1.847 1.847h-113.212c-1.019 0-1.847-.829-1.847-1.847v-10.906c0-1.018.828-1.847 1.847-1.847h113.213c1.019 0 1.847.829 1.847 1.847v10.906z"/><path d="m147.647 398.54-7.761 7.759-.05-.05c-8.43-8.43-22.073-8.432-30.504 0-8.429 8.427-8.434 22.073-.001 30.504l15.303 15.303c8.43 8.43 22.074 8.431 30.505 0l23.012-23.012c8.409-8.41 8.409-22.094 0-30.503-8.429-8.43-22.074-8.434-30.504-.001zm19.896 19.898-23.012 23.012c-2.566 2.568-6.724 2.568-9.29 0l-15.304-15.303c-2.567-2.568-2.568-6.721.001-9.291 2.562-2.563 6.716-2.573 9.29 0l5.354 5.354c2.927 2.927 7.678 2.929 10.606 0l13.064-13.063c2.565-2.566 6.724-2.568 9.29 0 2.563 2.561 2.563 6.729.001 9.291z"/><path d="m331.029 432.598h-39.949c-4.143 0-7.5 3.358-7.5 7.5s3.357 7.5 7.5 7.5h39.949c9.289 0 16.847-7.558 16.847-16.847v-10.907c0-9.289-7.558-16.847-16.847-16.847h-113.213c-9.289 0-16.847 7.558-16.847 16.847v10.907c0 9.289 7.558 16.847 16.847 16.847h38.264c4.143 0 7.5-3.358 7.5-7.5s-3.357-7.5-7.5-7.5h-38.264c-1.019 0-1.847-.829-1.847-1.847v-10.907c0-1.018.828-1.847 1.847-1.847h113.213c1.019 0 1.847.829 1.847 1.847v10.907c-.001 1.019-.829 1.847-1.847 1.847z"/><path d="m378.251 301.335c4.143 0 7.5-3.358 7.5-7.5v-112.688c35.64-13.189 61.114-47.518 61.114-87.687 0-51.534-41.927-93.46-93.461-93.46-29.457 0-55.77 13.703-72.913 35.064h-142.672c-1.895 0-3.85.743-5.304 2.197l-65.181 65.181c-1.45 1.449-2.196 3.392-2.196 5.303v382.062c0 12.239 9.957 22.197 22.196 22.197h276.22c12.239 0 22.197-9.958 22.197-22.197v-160.972c0-4.142-3.357-7.5-7.5-7.5s-7.5 3.358-7.5 7.5v160.972c0 3.968-3.229 7.197-7.197 7.197h-276.22c-3.968 0-7.196-3.229-7.196-7.197v-374.562h42.984c12.239 0 22.196-9.957 22.196-22.196v-42.985h125.293c-6.448 12.243-10.05 25.736-10.59 39.766-1.516 40.154 22.487 75.518 57.94 90.103h-100.145c-9.289 0-16.847 7.558-16.847 16.847v10.907c0 9.289 7.558 16.847 16.847 16.847h113.213c9.289 0 16.847-7.558 16.847-16.847v-10.907c0-3.881-1.333-7.45-3.546-10.301 2.987.289 6.014.442 9.075.442 5.837 0 11.753-.566 17.347-1.619v108.534c-.001 4.142 3.357 7.499 7.499 7.499zm-247.932-208.286c0 3.968-3.229 7.196-7.196 7.196h-32.378l39.574-39.574zm202.556 114.638c0 1.018-.828 1.847-1.847 1.847h-113.212c-1.019 0-1.847-.829-1.847-1.847v-10.907c0-1.018.828-1.847 1.847-1.847h113.213c1.019 0 1.847.829 1.847 1.847v10.907zm20.53-35.766c-43.263 0-78.46-35.197-78.46-78.46 0-43.193 35.133-78.46 78.46-78.46 43.264 0 78.461 35.197 78.461 78.46 0 43.222-35.165 78.46-78.461 78.46z"/></g></g></svg>